# xmcd
#
# Track frame offsets:
#	182
#	33845
#	49442
#	64230
#	84360
#	100507
#	119320
#	141827
#	155762
#	169182
#
# Disc length: 2618 seconds
#
# Revision: 1
# Processed by: cddbd v1.5PL3 Copyright (c) Steve Scherf et al.
# Submitted via: EasyCDDAExtractor 7.0.5.4
#
DISCID=820a380a
DTITLE=Almeta Speaks - Blues and Spirituals
DYEAR=1900
DGENRE=
TTITLE0=georgia on my mind (H. Carmichael)
TTITLE1=in your eyes (Rick Kilburn and Paul Laine)
TTITLE2=if i can help somebody (Androzzo)
TTITLE3=ballad of the sad young man (Tommy Wolf)
TTITLE4=trouble in mind (Jones)
TTITLE5=both sides now (Joni Mitchell)
TTITLE6=mr. bojangles (Jerry Jeff Walker)
TTITLE7=his eye is on the sparrow (C.H. Gabriel Sr.)
TTITLE8=i want a little sugar in my bowl (Nina Simone)
TTITLE9=my romance - i get along without you very well (Rogers and Hart - J. Bro
TTITLE9=wn - Carmichael)
EXTD=
EXTT0=
EXTT1=
EXTT2=
EXTT3=
EXTT4=
EXTT5=
EXTT6=
EXTT7=
EXTT8=
EXTT9=
PLAYORDER=
